<svg xmlns="http://www.w3.org/2000/svg" shape-rendering="geometricPrecision" text-rendering="geometricPrecision" image-rendering="optimizeQuality" fill-rule="evenodd" clip-rule="evenodd" viewBox="0 0 512 465.11"><path fill="#257FC4" fill-rule="nonzero" d="M382.59 84.49c45.66-6.3 82.6 14.01 105.29 45.62 9.91 13.8 17.01 29.76 20.84 46.53 3.82 16.71 4.39 34.35 1.25 51.59-8.21 44.96-41.07 86.72-106.67 101.95l-2.14.5H98.71l-1.68-.22c-38.63-4.91-67.13-26.7-82.94-54.82C5.36 260.13.54 242.6.04 224.86c-.5-17.79 3.41-35.8 12.14-52.18 13.89-26.06 39.71-47.78 79.02-57.54 9.37-35.72 28.81-63.33 53.65-82.61 23.58-18.3 52-28.95 81.24-31.77 29.06-2.81 59.02 2.16 85.87 15.04 28.82 13.83 54 36.67 70.63 68.69z"/><path fill="#88DFF3" d="M384.72 102.4c117.15-16.25 165.75 175.11 14.56 210.21H99.29C-.97 299.85-19.4 152.44 106.22 130.4 131.46-2.46 304.74-19.39 364.85 89.59c-7.56 2.72-14.87 6.19-21.84 10.32-15.11 8.96-28.67 21.04-39.59 35.28-2.97 3.89-2.23 9.46 1.67 12.44 3.89 2.97 9.46 2.22 12.43-1.67 9.53-12.42 21.35-22.97 34.52-30.76 10.24-6.07 21.28-10.47 32.68-12.8z"/><path fill="#A3EDFD" d="M384.77 102.39c30.08-4.16 55.64 5.38 74.46 22.44 15.79 53.28-6.96 119.74-90.04 139.03H69.2c-19.46-2.48-35.83-10.05-48.67-20.78C9.49 197 34.12 143.05 106.22 130.4 131.45-2.45 304.74-19.39 364.84 89.59c-7.55 2.72-14.87 6.2-21.83 10.32-15.11 8.96-28.67 21.04-39.59 35.28-2.97 3.89-2.23 9.46 1.67 12.44 3.89 2.97 9.46 2.22 12.43-1.67 9.53-12.42 21.35-22.97 34.52-30.76 10.25-6.08 21.31-10.48 32.73-12.81z"/><path fill="#fff" d="M323.4 84.64c.83-44.07-105.62-70.81-149.65-1.38 47.69-27.59 104.91-27.48 149.65 1.38z"/><path fill="#42BDFF" d="M229.51 332.56c7.78 38.49 38.46 66.49 38.46 89.2 0 57.8-76.86 57.81-76.86 0 0-22.83 30.67-50.53 38.4-89.2zm86.99-117.17c8.51 42.1 42.06 72.73 42.06 97.56 0 63.23-84.07 63.24-84.07 0 0-24.97 33.56-55.27 42.01-97.56zm-131.67-7.71c5.75 28.5 28.47 49.23 28.47 66.04 0 42.81-56.91 42.82-56.91 0 0-16.9 22.72-37.41 28.44-66.04z"/><path fill="#fff" d="M167.5 268.92c-.14-1.83 1.03-3.46 2.61-3.62 1.59-.17 3 1.19 3.14 3.02.36 4.44 1.2 8.52 2.8 12.05 1.56 3.4 3.86 6.33 7.19 8.59 1.37.92 1.83 2.97 1.03 4.56-.81 1.59-2.57 2.12-3.95 1.19-4.34-2.94-7.35-6.76-9.38-11.23-1.98-4.36-3.01-9.28-3.44-14.56zm123.41 36.94c-.22-2.71 1.51-5.11 3.86-5.35 2.34-.25 4.42 1.75 4.63 4.46.53 6.55 1.77 12.58 4.14 17.79 2.29 5.03 5.69 9.36 10.61 12.69 2.03 1.38 2.71 4.39 1.52 6.74-1.19 2.35-3.8 3.14-5.83 1.76-6.41-4.34-10.85-9.99-13.85-16.59-2.93-6.43-4.45-13.71-5.08-21.51v.01zm-84.8 109.41c-.19-2.48 1.39-4.67 3.53-4.89 2.15-.23 4.04 1.6 4.24 4.08.48 5.99 1.62 11.5 3.78 16.27 2.1 4.6 5.21 8.55 9.71 11.6 1.85 1.25 2.48 4.01 1.39 6.16-1.09 2.14-3.48 2.86-5.33 1.6-5.87-3.96-9.93-9.13-12.67-15.16-2.68-5.88-4.07-12.53-4.65-19.66z"/></svg>