<svg xmlns="http://www.w3.org/2000/svg" shape-rendering="geometricPrecision" text-rendering="geometricPrecision" image-rendering="optimizeQuality" fill-rule="evenodd" clip-rule="evenodd" viewBox="0 0 512 491.65"><path fill="#3E3E3E" fill-rule="nonzero" d="M240.27 119.01c2.93-25.95 13.03-49.75 28.26-69.34 18.65-23.99 45.03-41.7 75.43-49.4 2.81-.68 5.9-.08 8.31 1.89 4.04 3.32 4.62 9.28 1.3 13.32-7.38 9-13.29 19.34-17.32 30.64-3.86 10.82-5.97 22.5-5.97 34.68 0 28.47 11.54 54.25 30.19 72.9 18.66 18.65 44.43 30.2 72.9 30.2 11.74 0 23-1.96 33.48-5.55 10.77-3.7 20.7-9.09 29.45-15.84a9.484 9.484 0 018.78-1.98c5.04 1.41 7.98 6.65 6.57 11.69-6.93 24.72-20.54 46.66-38.76 63.72-15.95 14.95-35.45 26.17-57.1 32.27.7 6.96.71 14.01-.02 21.02-3.25 31.28-20.92 61.66-57.18 79.44-22.35 10.96-32.02 10.95-53.75 10.93h-2.93v.05h-202v-.05l-4.95.02c-14.38.09-24.66.15-40.36-6.25-21.36-8.71-37.05-24.65-46-43.43-6.84-14.37-9.73-30.48-8.2-46.35 1.54-15.98 7.58-31.67 18.57-45.07 12.24-14.92 30.52-26.88 55.4-32.93 7.52-29.27 23.35-51.87 43.63-67.6 19.1-14.82 42.12-23.44 65.81-25.73 18.91-1.83 38.29.4 56.46 6.75z"/><path fill="#E5C640" d="M414.41 258.75c42.62-12.46 76.12-46.28 88.11-89.09-19.08 14.87-43.08 23.73-69.15 23.73-62.18 0-112.59-50.41-112.59-112.59 0-27.07 9.56-51.91 25.48-71.33-52.18 13.22-91.7 58.19-96.81 113.15 1.33.58 2.65 1.19 3.95 1.82 23.57 11.3 44.13 30.06 57.6 56.4 30.72-4.48 56.66 5.99 75.22 24.29 10.81 10.65 19.03 23.97 24.12 38.5 1.72 4.91 3.08 9.98 4.07 15.12z"/><path fill="#FEDC47" d="M286.61 147.6c-.4-24.55 5.64-49.53 18.82-72.35 5.73-9.93 12.5-18.9 20.08-26.84 4.32-14.41 11.45-27.6 20.75-38.94-52.18 13.22-91.7 58.19-96.81 113.15 1.33.58 2.65 1.19 3.95 1.82 12.04 5.77 23.29 13.48 33.21 23.16z"/><path fill="#D4D1D1" d="M318.06 193.67c84.66-7.05 122.38 119.82 34.6 162.86-20.5 10.05-29.07 9.55-50.75 9.55h-202c-15.56 0-25.23.85-40.22-5.27-63.42-25.86-67.58-127.32 25.98-143.73 20.73-109.09 163.5-122.61 212.09-32.28-6.32 2.23-12.43 5.12-18.25 8.56-12.31 7.29-23.34 17.14-32.24 28.73a6.771 6.771 0 001.27 9.49c2.97 2.26 7.22 1.7 9.49-1.27 7.83-10.21 17.54-18.87 28.37-25.29 9.84-5.83 20.59-9.79 31.66-11.35z"/><path fill="#ECE8E8" d="M318.37 193.63c22.48-1.79 41.63 5.88 55.98 18.89 12.91 43.57-5.69 97.92-73.63 113.69H55.4c-15.92-2.02-29.3-8.21-39.8-16.99-9.03-37.69 11.11-81.8 70.07-92.14 20.72-109.1 163.5-122.61 212.1-32.28-6.33 2.23-12.44 5.12-18.26 8.56-12.31 7.29-23.34 17.14-32.24 28.73a6.771 6.771 0 001.27 9.49c2.97 2.26 7.22 1.7 9.49-1.27 7.83-10.21 17.54-18.87 28.37-25.29 9.94-5.88 20.79-9.87 31.97-11.39z"/><path fill="#fff" d="M263.28 179.65c.68-36.03-86.38-57.9-122.38-1.13 38.99-22.56 85.79-22.47 122.38 1.13z"/><path fill="#A5A2A2" d="M184.56 379.8c6.56 32.48 32.45 56.11 32.45 75.27 0 48.77-64.86 48.78-64.86 0 0-19.27 25.89-42.64 32.41-75.27zm73.4-98.88c7.18 35.53 35.49 61.38 35.49 82.33 0 53.36-70.94 53.37-70.94 0 0-21.07 28.32-46.63 35.45-82.33zm-111.11-6.5c4.86 24.05 24.03 41.54 24.03 55.73 0 36.12-48.02 36.13-48.02 0 0-14.26 19.16-31.57 23.99-55.73z"/><path fill="#fff" d="M236.37 357.26c-.18-2.28 1.28-4.3 3.25-4.51 1.98-.21 3.73 1.48 3.91 3.77.45 5.52 1.49 10.62 3.49 15.01 1.94 4.25 4.81 7.89 8.96 10.71 1.71 1.16 2.29 3.71 1.28 5.68-1 1.98-3.21 2.65-4.92 1.49-5.41-3.66-9.16-8.43-11.69-14-2.47-5.43-3.75-11.57-4.28-18.15zm-71.55 92.33c-.17-2.09 1.17-3.94 2.97-4.13 1.81-.19 3.41 1.35 3.57 3.45.41 5.05 1.37 9.71 3.2 13.72 1.77 3.89 4.39 7.22 8.19 9.79 1.56 1.06 2.09 3.39 1.17 5.2-.92 1.81-2.93 2.42-4.5 1.36-4.95-3.35-8.37-7.71-10.69-12.8-2.26-4.96-3.43-10.58-3.91-16.59zM132.23 326.1c-.12-1.55.87-2.92 2.21-3.06 1.34-.14 2.52 1 2.64 2.55.31 3.74 1.01 7.19 2.37 10.17 1.31 2.87 3.25 5.34 6.06 7.24 1.16.79 1.55 2.51.87 3.85-.68 1.34-2.17 1.8-3.33 1.01-3.66-2.48-6.2-5.71-7.92-9.48-1.67-3.67-2.54-7.83-2.9-12.28z"/></svg>