<svg xmlns="http://www.w3.org/2000/svg" shape-rendering="geometricPrecision" text-rendering="geometricPrecision" image-rendering="optimizeQuality" fill-rule="evenodd" clip-rule="evenodd" viewBox="0 0 512 469.86"><path fill="#257FC4" fill-rule="nonzero" d="M382.31 86.17c46.02-7.38 83.26 12.7 105.94 44.3 9.73 13.56 16.73 29.25 20.5 45.76 3.78 16.48 4.35 33.88 1.25 50.87-8.07 44.22-40.51 85.33-105.32 100.37l-1.7.4h-21.29l12.87-15.67h-55.58l53.68-80.08-106.19.99-7.52.07-27.2 94.69H96.41l-1.33-.17c-37.86-4.82-65.78-26.16-81.27-53.69C5.26 258.81.53 241.63.04 224.27c-.49-17.41 3.33-35.01 11.86-51.02 13.88-26.03 39.98-47.65 80-57 9.04-36.48 28.56-64.57 53.65-84.04C168.9 14.09 197.04 3.55 226 .75c28.81-2.78 58.51 2.13 85.12 14.9 29.27 14.04 54.75 37.49 71.19 70.52z"/><path fill="#88DFF3" d="M390.53 99.6c116.16-11.84 162.81 178.62 10.95 213.88h-7.98l1.06-1.28h-55.58l53.68-80.08-106.19.99-7.52.07-23.07 80.3H96.87c-101.79-12.95-120.51-162.64 7.04-185.02C129.84-8.01 309.63-24.04 368.62 90.94c-7.42 2.69-14.6 6.12-21.45 10.18-15.13 8.96-28.7 21.07-39.64 35.32a7.08 7.08 0 001.32 9.91c3.1 2.36 7.54 1.77 9.91-1.33 9.83-12.81 22.02-23.69 35.6-31.74 11.29-6.68 23.53-11.42 36.17-13.68z"/><path fill="#A3EDFD" d="M391 99.52c28.7-2.8 53.14 6.77 71.35 23.29 16.01 54.01-6.99 121.34-90.98 141.06l21.29-31.75-106.19.99-7.52.07-8.85 30.8H66.33c-19.77-2.52-36.38-10.21-49.42-21.1-11.22-46.8 13.79-101.57 87-114.41C129.84-8.01 309.63-24.04 368.62 90.94c-7.42 2.69-14.6 6.12-21.45 10.18-15.13 8.96-28.7 21.07-39.64 35.32a7.08 7.08 0 001.32 9.91c3.1 2.36 7.54 1.77 9.91-1.33 9.83-12.81 22.02-23.69 35.6-31.74 11.43-6.77 23.83-11.53 36.64-13.76z"/><path fill="#fff" d="M324.44 82c.85-44.75-107.25-71.9-151.95-1.41 48.42-28.01 106.52-27.9 151.95 1.41z"/><path fill="#42BDFF" d="M197.2 325.52c6.34 31.35 31.32 54.15 31.32 72.64 0 47.07-62.59 47.08-62.59 0 0-18.59 24.98-41.14 31.27-72.64z"/><path fill="#fff" d="M178.15 392.87c-.15-2.01 1.13-3.79 2.88-3.98 1.74-.18 3.29 1.31 3.44 3.32.4 4.88 1.32 9.37 3.08 13.25 1.71 3.75 4.24 6.96 7.91 9.45 1.51 1.02 2.01 3.27 1.13 5.01-.89 1.75-2.83 2.34-4.34 1.31-4.78-3.23-8.08-7.43-10.32-12.35-2.18-4.79-3.31-10.2-3.78-16.01z"/><path fill="#42BDFF" d="M179.8 224.09c5.48 27.15 27.12 46.89 27.12 62.9 0 40.77-54.21 40.78-54.21 0 0-16.09 21.64-35.63 27.09-62.9z"/><path fill="#fff" d="M163.3 282.42c-.14-1.75.97-3.29 2.48-3.45 1.52-.16 2.85 1.13 2.99 2.88.34 4.22 1.14 8.11 2.67 11.47 1.48 3.24 3.67 6.03 6.84 8.18 1.31.88 1.75 2.83.98 4.34-.77 1.52-2.45 2.03-3.76 1.14-4.13-2.8-7-6.44-8.93-10.7-1.89-4.14-2.87-8.83-3.27-13.86z"/><path fill="#42BDFF" d="M104.44 287.77c6.41 31.69 31.66 54.73 31.66 73.42 0 47.58-63.27 47.59-63.27 0 0-18.79 25.25-41.59 31.61-73.42z"/><path fill="#fff" d="M85.19 355.85c-.16-2.03 1.14-3.84 2.9-4.02 1.77-.19 3.33 1.31 3.48 3.35.4 4.94 1.34 9.48 3.12 13.39 1.73 3.79 4.29 7.04 7.99 9.55 1.53 1.04 2.04 3.31 1.14 5.07-.89 1.77-2.86 2.36-4.39 1.33-4.82-3.27-8.16-7.52-10.42-12.49-2.21-4.84-3.35-10.31-3.82-16.18z"/><path fill="#FFCD52" d="M373.75 242.32l-87.2.81-31.86 110.9 43.22.41-45.84 115.42 121.25-147.6h-53.16z"/><path fill="#F7C043" d="M311.35 243.45l-24.22.45-30.54 109.52 41.58.94-46.1 115.5 61.86-126.45-36.86-6.29z"/></svg>